<svg width="112" height="81" viewBox="0 0 112 81" fill="none" xmlns="http://www.w3.org/2000/svg">
<path fill-rule="evenodd" clip-rule="evenodd" d="M36.5594 79.2132C33.7037 80.4044 30.682 81 27.4943 81C23.7752 81 20.2222 80.2721 16.8352 78.8162C13.4483 77.3603 10.5262 75.3419 8.06897 72.761C5.61175 70.1802 3.65262 67.0368 2.19157 63.3309C0.730524 59.625 0 55.5882 0 51.2206C0 46.4559 0.863346 41.5588 2.59004 36.5294C4.31673 31.5 6.97318 26.7353 10.5594 22.2353C14.1456 17.7353 18.6616 13.6324 24.1073 9.92647C29.553 6.22059 35.9949 3.375 43.4329 1.38971L47.8161 0L52 13.5L49.41 14.2941C43.3001 16.4118 37.9208 19.3897 33.272 23.2279C28.6232 27.0662 25.4355 31.3015 23.7088 35.9338H27.8927C31.0805 35.9338 34.0358 36.4963 36.7586 37.6213C39.4815 38.7463 41.8723 40.3015 43.931 42.2868C45.9898 44.2721 47.6169 46.6213 48.8123 49.3346C50.0077 52.0478 50.6054 54.9926 50.6054 58.1691C50.6054 61.3456 50.0077 64.3235 48.8123 67.1029C47.6169 69.8824 45.9898 72.2978 43.931 74.3493C41.8723 76.4007 39.4151 78.0221 36.5594 79.2132ZM96.5594 79.2132C93.7037 80.4044 90.682 81 87.4943 81C83.7752 81 80.2222 80.2721 76.8353 78.8162C73.4483 77.3603 70.5262 75.3419 68.069 72.761C65.6117 70.1802 63.6526 67.0368 62.1916 63.3309C60.7305 59.625 60 55.5882 60 51.2206C60 46.4559 60.8633 41.5588 62.59 36.5294C64.3167 31.5 66.9732 26.7353 70.5594 22.2353C74.1456 17.7353 78.6616 13.6324 84.1073 9.92647C89.553 6.22059 95.9949 3.375 103.433 1.38971L107.816 0L112 13.5L109.41 14.2941C103.3 16.4118 97.9208 19.3897 93.272 23.2279C88.6232 27.0662 85.4355 31.3015 83.7088 35.9338H87.8927C91.0805 35.9338 94.0358 36.4963 96.7586 37.6213C99.4815 38.7463 101.872 40.3015 103.931 42.2868C105.99 44.2721 107.617 46.6213 108.812 49.3346C110.008 52.0478 110.605 54.9926 110.605 58.1691C110.605 61.3456 110.008 64.3235 108.812 67.1029C107.617 69.8824 105.99 72.2978 103.931 74.3493C101.872 76.4007 99.4151 78.0221 96.5594 79.2132Z" fill="#F3F3F3"/>
</svg>
